# xmcd
#
# Track frame offsets: 
#        150
#        20580
#        33110
#        53715
#        67384
#        91821
#        103682
#        115010
#        132575
#        146802
#        157122
#
# Disc length: 2194 seconds
#
# Revision: 0
# Processed by: cddbd v1.5.2PL0 Copyright (c) Steve Scherf et al.
# Submitted via: ExactAudioCopy v1.0b4
#
DISCID=9c08900b
DTITLE=John Mayall's Bluesbreakers - Rare Tracks Vol. 2 (LP)
DYEAR=1981
DGENRE=Blues
TTITLE0=They Call It Stormy Monday
TTITLE1=Suspicions (Part One)
TTITLE2=Jenny
TTITLE3=Picture On The Wall
TTITLE4=Suspicions (Part Two)
TTITLE5=Mama Talk To Your Daughter
TTITLE6=Alabama Blues
TTITLE7=Your Funeral And My Trial
TTITLE8=Knockers Step Forward
TTITLE9=Hide And Seek
TTITLE10=Another Man Done Gone
EXTD=
EXTT0=
EXTT1=
EXTT2=
EXTT3=
EXTT4=
EXTT5=
EXTT6=
EXTT7=
EXTT8=
EXTT9=
EXTT10=
PLAYORDER=
